<svg aria-hidden="true" style="position:absolute;width:0;height:0;overflow:hidden" xmlns="http://www.w3.org/2000/svg">
  <defs>
    <symbol id="star" viewBox="0 0 24 24" fill="none">
      <path d="M12 2L15.09 8.26L22 9.27L17 14.14L18.18 21.02L12 17.77L5.82 21.02L7 14.14L2 9.27L8.91 8.26L12 2Z" fill="#EEA10C"/>
    </symbol>
    
    <symbol id="arrow-right" viewBox="0 0 24 24" fill="none">
      <path d="M5 12H19M19 12L12 5M19 12L12 19" stroke="currentColor" stroke-width="2" stroke-linecap="round" stroke-linejoin="round"/>
    </symbol>
    
    <symbol id="arrow-left" viewBox="0 0 24 24" fill="none">
      <path d="M19 12H5M5 12L12 19M5 12L12 5" stroke="currentColor" stroke-width="2" stroke-linecap="round" stroke-linejoin="round"/>
    </symbol>
    
    <symbol id="close" viewBox="0 0 24 24" fill="none">
      <path d="M18 6L6 18M6 6L18 18" stroke="currentColor" stroke-width="2" stroke-linecap="round" stroke-linejoin="round"/>
    </symbol>
    
    <symbol id="menu" viewBox="0 0 24 24" fill="none">
      <path d="M3 12H21M3 6H21M3 18H21" stroke="currentColor" stroke-width="2" stroke-linecap="round" stroke-linejoin="round"/>
    </symbol>
    
    <symbol id="search" viewBox="0 0 24 24" fill="none">
      <path d="M21 21L15 15M17 10C17 13.866 13.866 17 10 17C6.13401 17 3 13.866 3 10C3 6.13401 6.13401 3 10 3C13.866 3 17 6.13401 17 10Z" stroke="currentColor" stroke-width="2" stroke-linecap="round" stroke-linejoin="round"/>
    </symbol>
    
    <symbol id="trash" viewBox="0 0 24 24" fill="none">
      <path d="M3 6H5H21M8 6V4C8 3.46957 8.21071 2.96086 8.58579 2.58579C8.96086 2.21071 9.46957 2 10 2H14C14.5304 2 15.0391 2.21071 15.4142 2.58579C15.7893 2.96086 16 3.46957 16 4V6M19 6V20C19 20.5304 18.7893 21.0391 18.4142 21.4142C18.0391 21.7893 17.5304 22 17 22H7C6.46957 22 5.96086 21.7893 5.58579 21.4142C5.21071 21.0391 5 20.5304 5 20V6H19Z" stroke="currentColor" stroke-width="2" stroke-linecap="round" stroke-linejoin="round"/>
    </symbol>
    
    <symbol id="facebook" viewBox="0 0 24 24" fill="none">
      <path d="M18 2H15C13.6739 2 12.4021 2.52678 11.4645 3.46447C10.5268 4.40215 10 5.67392 10 7V10H7V14H10V22H14V14H17L18 10H14V7C14 6.73478 14.1054 6.48043 14.2929 6.29289C14.4804 6.10536 14.7348 6 15 6H18V2Z" stroke="currentColor" stroke-width="2" stroke-linecap="round" stroke-linejoin="round"/>
    </symbol>
    
    <symbol id="instagram" viewBox="0 0 24 24" fill="none">
      <rect x="2" y="2" width="20" height="20" rx="5" ry="5" stroke="currentColor" stroke-width="2" stroke-linecap="round" stroke-linejoin="round"/>
      <path d="M16 11.37C16.1234 12.2022 15.9813 13.0522 15.5938 13.799C15.2063 14.5458 14.5931 15.1514 13.8416 15.5297C13.0901 15.9079 12.2384 16.0396 11.4077 15.9059C10.5771 15.7723 9.80976 15.3801 9.21484 14.7852C8.61992 14.1902 8.22773 13.4229 8.09407 12.5923C7.9604 11.7616 8.09207 10.9099 8.47033 10.1584C8.84859 9.40685 9.45419 8.79374 10.201 8.40624C10.9478 8.01874 11.7978 7.87658 12.63 8C13.4789 8.12588 14.2648 8.52146 14.8717 9.1283C15.4785 9.73515 15.8741 10.5211 16 11.37Z" stroke="currentColor" stroke-width="2" stroke-linecap="round" stroke-linejoin="round"/>
      <path d="M17.5 6.5H17.51" stroke="currentColor" stroke-width="2" stroke-linecap="round" stroke-linejoin="round"/>
    </symbol>
    
    <symbol id="youtube" viewBox="0 0 24 24" fill="none">
      <path d="M22.54 6.42C22.4212 5.94541 22.1793 5.51057 21.8387 5.15941C21.498 4.80824 21.0708 4.55318 20.6 4.42C18.88 4 12 4 12 4C12 4 5.12 4 3.4 4.46C2.92925 4.59318 2.502 4.84824 2.16137 5.19941C1.82074 5.55057 1.57881 5.98541 1.46 6.46C1.14521 8.20556 0.991228 9.97631 1 11.75C0.988779 13.537 1.14276 15.3213 1.46 17.08C1.59096 17.5398 1.83831 17.9581 2.17695 18.2945C2.51558 18.6308 2.93777 18.8738 3.4 19C5.12 19.46 12 19.46 12 19.46C12 19.46 18.88 19.46 20.6 19C21.0708 18.8668 21.498 18.6118 21.8387 18.2606C22.1793 17.9094 22.4212 17.4746 22.54 17C22.8524 15.2676 23.0064 13.5103 23 11.75C23.0112 9.96295 22.8572 8.1787 22.54 6.42Z" stroke="currentColor" stroke-width="2" stroke-linecap="round" stroke-linejoin="round"/>
      <path d="M9.75 15.02L15.5 11.75L9.75 8.48001V15.02Z" stroke="currentColor" stroke-width="2" stroke-linecap="round" stroke-linejoin="round"/>
    </symbol>
    
    <symbol id="heart" viewBox="0 0 24 24" fill="none">
      <path d="M20.84 4.61C20.3292 4.099 19.7228 3.69364 19.0554 3.41708C18.3879 3.14052 17.6725 2.99817 16.95 2.99817C16.2275 2.99817 15.5121 3.14052 14.8446 3.41708C14.1772 3.69364 13.5708 4.099 13.06 4.61L12 5.67L10.94 4.61C9.9083 3.5783 8.50903 2.99872 7.05 2.99872C5.59096 2.99872 4.19169 3.5783 3.16 4.61C2.1283 5.64169 1.54872 7.04097 1.54872 8.5C1.54872 9.95903 2.1283 11.3583 3.16 12.39L4.22 13.45L12 21.23L19.78 13.45L20.84 12.39C21.351 11.8792 21.7564 11.2728 22.0329 10.6054C22.3095 9.93789 22.4518 9.2225 22.4518 8.5C22.4518 7.7775 22.3095 7.06211 22.0329 6.39464C21.7564 5.72716 21.351 5.12075 20.84 4.61Z" fill="currentColor"/>
    </symbol>
    
    <symbol id="arrow" viewBox="0 0 24 24" fill="none">
      <path d="M5 12H19M19 12L12 5M19 12L12 19" stroke="currentColor" stroke-width="2" stroke-linecap="round" stroke-linejoin="round"/>
    </symbol>
  </defs>
</svg>
